<?xml version="1.0" encoding="UTF-8" standalone="no"?>
<svg xmlns="http://www.w3.org/2000/svg" height="166.06mm" width="175.34mm" version="1.1" xmlns:xlink="http://www.w3.org/1999/xlink" viewBox="0 0 175.34041 166.06046">
	<defs>
		<radialGradient id="radialGradient4848" spreadMethod="reflect" gradientUnits="userSpaceOnUse" cy="251.82" cx="290.27" gradientTransform="matrix(3.3815 -.015680 .0072937 1.5729 -692.53 -139.22)" r="35.126">
			<stop style="stop-color:#fff" offset="0"/>
			<stop style="stop-color:#171717" offset="1"/>
		</radialGradient>
		<linearGradient id="linearGradient5605" y2="227.45" gradientUnits="userSpaceOnUse" x2="101.54" y1="80.359" x1="94.427">
			<stop offset="0"/>
			<stop style="stop-color:#fff" offset="1"/>
		</linearGradient>
	</defs>
	<g transform="translate(138.32 -37.077)">
		<g transform="translate(-340.56 -79.752)">
			<path d="m272.26 119.73c-7.3407 0.29693-0.79434 6.2757-1.1768 12.933-0.52795 9.1914-8.7144 8.5048-7.063 25.353-15.016 7.4422-25.109 20.729-19.365 36.056-16.285 6.1361-21.601 21.216-17.373 36.386-27.877 11.296-29.128 40.315-4.9641 48.589 8.426 2.7412 20.858 2.3829 37.484-3.2942 8.5434-2.9171 25.428 7.2166 78.994 4.5882 35.432-1.7386 53.09-33.587 16.753-49.158 4.509-16.49-2.5431-31.026-16.437-37.348 2.4113-14.381-8.3065-25.059-20.18-26.5 0.89776-18.813-23.483-48.544-46.672-47.606z" style="color-rendering:auto;text-decoration-color:#000000;color:#000000;font-variant-numeric:normal;shape-rendering:auto;solid-color:#000000;text-decoration-line:none;fill:#7c471b;font-variant-position:normal;mix-blend-mode:normal;font-feature-settings:normal;shape-padding:0;font-variant-alternates:normal;text-indent:0;font-variant-ligatures:normal;dominant-baseline:auto;font-variant-caps:normal;image-rendering:auto;white-space:normal;text-decoration-style:solid;text-orientation:mixed;isolation:auto;text-transform:none"/>
			<path d="m1030.2 490.21s-8.881 44.403 28.418 53.283c44.403 7.1046 35.523-31.97-28.418-53.283zm162.29 94.094c-5.3285 92.359-239.78 163.4-268.2 108.34 0.00004 19.538 8.8731 42.739 24.865 40.852 112.6-13.291 180.8-42.481 236.23-88.807 22.352-18.681 15.986-40.851 7.1055-60.389zm81.328 96.447c-14.209 126.11-388.98 225.57-415.62 152.75 0.00003 19.538-1.8638 48.944 14.209 47.955 187.2-11.515 333.55-81.555 388.97-136.76 20.64-20.557 21.314-44.404 12.434-63.941zm68.08 131.82c-12.433 117.23-495.54 264.64-552.38 186.49 5.3284 49.732 74.509 68.482 133.21 55.061 36.729-8.398 72.731-18.293 107.27-29.188-15.316 6.3465-27.776 11.602-36.635 15.549 189.94 18.583 324.67 33.893 397.86-17.762 23.8-16.797 28.418-49.732 19.537-69.27-20.944 123.92-211.51 79.798-325.98 52.949 112.46-40.668 202.88-90.015 241.13-128.12 20.64-20.557 24.867-46.179 15.986-65.717z" style="fill:#6b3505" transform="scale(.26458)"/>
			<path d="m1031.5 454.34c-3.1781-0.0638-6.0246 0.21481-8.4668 0.88086 0 0 62.357 63.936 136.76 72.82 41.86 4.9983-80.626-72.745-128.3-73.701zm59.082 133.22c-0.3043-0.008-0.6237-0.008-0.959 0.002-4.4535 0.12637-11.66 1.8392-22.207 5.6602-21.123 7.6524-39.074 5.328-62.164-3.5527-124.33 71.046-39.279 70.342 23.09 47.955 39.684-14.244 81.414-49.546 62.24-50.064zm121.24 47.004c-8.3053-0.081-18.747 3.728-30.736 13.719-42.627 35.523-140.32 79.925-236.23 85.254-42.627 12.433-72.872 45.874-42.627 46.18 184.41 1.8625 258.95-58.466 321.48-106.57 16.596-12.766 9.3341-38.377-11.891-38.584zm80.039 106.98c-7.0309-0.0773-18.458 5.3876-35.109 19.264-87.031 58.613-209.58 126.11-406.73 120.78-42.627 12.433-46.12 41.798-15.986 44.402 227.04 19.624 433.01-90.436 461.8-154.52 7.2735-16.193 7.0014-29.799-3.9668-29.92zm53.768 139.73c-1.4519-0.0496-3.2662 0.58687-5.4395 2.0273-83.909 55.616-145.63 79.975-216.69 104.79-40.834 14.259 56.851 22.931 161.63-19.537 54.798-22.211 74.535-86.802 60.5-87.281z" style="fill:#855a34" transform="scale(.26458)"/>
			<path d="m267.03 124.83c3.2356 5.9977 2.558 8.5803-0.78859 13.404-2.7082 3.9038-6.3144 9.4151-4.5568 18.338-16.381 7.6055-26.327 21.36-18.733 37.024-16.643 4.2007-23.808 18.209-18.107 36.127-30.153 10.862-28.743 42.708-4.0153 51.066 8.5784 2.8996 19.995 2.7437 34.076-1.6035 5.2694-1.6268 13.91 0.27038 27.551 1.3364 39.701 3.1024 67.888 5.066 85.086-6.7407 6.287-4.3159 9.4377-10.394 9.9627-16.449 0.9899-11.416-7.2407-22.699-19.814-27.221 6.3331-17.197-2.0776-32.036-16.621-37.463 2.4643-16.422-8.8187-26.629-20.094-27.787 2.9556-19.778-21.673-43.859-46.572-47.891-4.9728-0.8051-10.581 1.9135-7.3732 7.859zm49.077 38.615c-0.93455 10.898-63.254 39.856-69.758 24.528-5.2566-12.387 8.8567-23.737 17.682-27.109 3.9431-1.5068 10.817 0.2591 18.856-4.0266-15.223 0.62061-20.605-4.1796-12.538-15.749 4.297-7.2491 4.9748-11.557 0.92553-18.969 21.314 0.23146 46.179 25.625 44.833 41.326zm4.5341 6.366c10.047 2.9205 17.217 10.95 15.932 20.503-2.4676 18.339-101.23 54.679-107.77 34.765-4.2624-12.996 6.487-24.44 16.39-27.16 8.3248-2.2867 22.805-1.5761 45.345-11.306 18.13-7.8263 26.375-17.885 30.099-16.802zm19.707 27.904c12.05 6.025 16.678 18.121 13.21 28.802-3.8085 11.728-54.406 33.025-97.67 47.703-45.295 15.367-62.348-22.055-33.956-37.958 7.6011-4.2578 25.872 4.1541 68.01-11.477 42.571-15.792 47.265-28.641 50.407-27.07zm16.647 37.553c16.127 7.2531 21.284 25.144 7.6313 34.452-20.629 14.063-64.802 7.3257-95.962 4.0711 77.428-26.162 84.148-40.404 88.33-38.523z" style="color-rendering:auto;text-decoration-color:#000000;color:#000000;font-variant-numeric:normal;shape-rendering:auto;solid-color:#000000;text-decoration-line:none;fill:#531f02;font-variant-position:normal;mix-blend-mode:normal;font-feature-settings:normal;shape-padding:0;font-variant-alternates:normal;text-indent:0;font-variant-ligatures:normal;dominant-baseline:auto;font-variant-caps:normal;image-rendering:auto;white-space:normal;text-decoration-style:solid;text-orientation:mixed;isolation:auto;text-transform:none"/>
			<g transform="translate(-.57876)">
				<g id="g4823" transform="translate(179.92)">
					<ellipse style="stroke-linejoin:round;stroke:#531f02;stroke-linecap:round;stroke-width:2;fill:url(#linearGradient5605)" rx="18.353" ry="23.522" cy="209.12" cx="84.119"/>
					<ellipse rx="8.2524" ry="12.979" cy="209.12" cx="84.119"/>
				</g>
				<use xlink:href="#g4823" transform="translate(52.917)" height="100%" width="100%" y="0" x="0"/>
			</g>
			<path d="m324.28 243.84c0 7.4136-15.385 17.857-34.364 17.857s-34.364-10.444-34.364-17.857c0-7.4136 15.385-3.7496 34.364-3.7496s34.364-3.6639 34.364 3.7496z" style="stroke-linejoin:round;stroke:#531f02;stroke-linecap:round;stroke-width:1.5234;fill:url(#radialGradient4848)"/>
		</g>
	</g>
</svg>
